# xmcd
#
# Track frame offsets: 
#        150
#        13557
#        23915
#        38772
#        50930
#        68402
#        85477
#        104325
#        117095
#        132090
#        148290
#
# Disc length: 2146 seconds
#
# Revision: 6
# Processed by: cddbd v1.5.2PL0 Copyright (c) Steve Scherf et al.
# Submitted via: ExactAudioCopy v0.99pb3
#
DISCID=9508600b
DTITLE=Alan Jackson - Let It Be Christmas
DYEAR=2002
DGENRE=Christmas
TTITLE0=Have Yourself A Merry Little Christmas
TTITLE1=Winter Wonderland
TTITLE2=O Come, All Ye Faithful
TTITLE3=Santa Claus Is Comin' To Town
TTITLE4=The Christmas Song
TTITLE5=Silent Night
TTITLE6=Let It Be Christmas
TTITLE7=Jingle Bells
TTITLE8=White Christmas
TTITLE9=Silver Bells
TTITLE10=Away In A Manger
EXTD=YEAR: 2002
EXTT0=
EXTT1=
EXTT2=
EXTT3=
EXTT4=
EXTT5=
EXTT6=
EXTT7=
EXTT8=
EXTT9=
EXTT10=
PLAYORDER=
